<mxfile host="app.diagrams.net" modified="2022-05-19T05:02:06.494Z" agent="5.0 (Windows NT 10.0; Win64; x64) AppleWebKit/537.36 (KHTML, like Gecko) Chrome/101.0.4951.64 Safari/537.36 Edg/101.0.1210.47" etag="fyCPRyAcnS1Vt4h_BC9w" version="18.0.7" type="github">
  <diagram id="Jv2zzsDzuC3Io0ffWsvZ" name="第 1 页">
    <mxGraphModel dx="3122" dy="794" grid="1" gridSize="10" guides="1" tooltips="1" connect="1" arrows="1" fold="1" page="1" pageScale="1" pageWidth="850" pageHeight="1100" background="#F1FAEE" math="0" shadow="0">
      <root>
        <mxCell id="0" />
        <mxCell id="1" parent="0" />
        <mxCell id="HLTBOoEIPEG-JOOhemKR-47" value="Infra" style="shape=table;startSize=30;container=1;collapsible=1;childLayout=tableLayout;fixedRows=1;rowLines=0;fontStyle=1;align=center;resizeLast=1;sketch=1;fillColor=#A8DADC;strokeColor=#457B9D;fontColor=#1D3557;" vertex="1" parent="1">
          <mxGeometry x="-580" y="200" width="180" height="160" as="geometry" />
        </mxCell>
        <mxCell id="HLTBOoEIPEG-JOOhemKR-48" value="" style="shape=tableRow;horizontal=0;startSize=0;swimlaneHead=0;swimlaneBody=0;fillColor=none;collapsible=0;dropTarget=0;points=[[0,0.5],[1,0.5]];portConstraint=eastwest;top=0;left=0;right=0;bottom=1;sketch=1;strokeColor=#457B9D;fontColor=#1D3557;" vertex="1" parent="HLTBOoEIPEG-JOOhemKR-47">
          <mxGeometry y="30" width="180" height="30" as="geometry" />
        </mxCell>
        <mxCell id="HLTBOoEIPEG-JOOhemKR-49" value="PK" style="shape=partialRectangle;connectable=0;fillColor=none;top=0;left=0;bottom=0;right=0;fontStyle=1;overflow=hidden;sketch=1;strokeColor=#457B9D;fontColor=#1D3557;" vertex="1" parent="HLTBOoEIPEG-JOOhemKR-48">
          <mxGeometry width="30" height="30" as="geometry">
            <mxRectangle width="30" height="30" as="alternateBounds" />
          </mxGeometry>
        </mxCell>
        <mxCell id="HLTBOoEIPEG-JOOhemKR-50" value="001" style="shape=partialRectangle;connectable=0;fillColor=none;top=0;left=0;bottom=0;right=0;align=left;spacingLeft=6;fontStyle=5;overflow=hidden;sketch=1;strokeColor=#457B9D;fontColor=#1D3557;" vertex="1" parent="HLTBOoEIPEG-JOOhemKR-48">
          <mxGeometry x="30" width="150" height="30" as="geometry">
            <mxRectangle width="150" height="30" as="alternateBounds" />
          </mxGeometry>
        </mxCell>
        <mxCell id="HLTBOoEIPEG-JOOhemKR-51" value="" style="shape=tableRow;horizontal=0;startSize=0;swimlaneHead=0;swimlaneBody=0;fillColor=none;collapsible=0;dropTarget=0;points=[[0,0.5],[1,0.5]];portConstraint=eastwest;top=0;left=0;right=0;bottom=0;sketch=1;strokeColor=#457B9D;fontColor=#1D3557;" vertex="1" parent="HLTBOoEIPEG-JOOhemKR-47">
          <mxGeometry y="60" width="180" height="30" as="geometry" />
        </mxCell>
        <mxCell id="HLTBOoEIPEG-JOOhemKR-52" value="" style="shape=partialRectangle;connectable=0;fillColor=none;top=0;left=0;bottom=0;right=0;editable=1;overflow=hidden;sketch=1;strokeColor=#457B9D;fontColor=#1D3557;" vertex="1" parent="HLTBOoEIPEG-JOOhemKR-51">
          <mxGeometry width="30" height="30" as="geometry">
            <mxRectangle width="30" height="30" as="alternateBounds" />
          </mxGeometry>
        </mxCell>
        <mxCell id="HLTBOoEIPEG-JOOhemKR-53" value="workstation inventory" style="shape=partialRectangle;connectable=0;fillColor=none;top=0;left=0;bottom=0;right=0;align=left;spacingLeft=6;overflow=hidden;sketch=1;strokeColor=#457B9D;fontColor=#1D3557;" vertex="1" parent="HLTBOoEIPEG-JOOhemKR-51">
          <mxGeometry x="30" width="150" height="30" as="geometry">
            <mxRectangle width="150" height="30" as="alternateBounds" />
          </mxGeometry>
        </mxCell>
        <mxCell id="HLTBOoEIPEG-JOOhemKR-54" value="" style="shape=tableRow;horizontal=0;startSize=0;swimlaneHead=0;swimlaneBody=0;fillColor=none;collapsible=0;dropTarget=0;points=[[0,0.5],[1,0.5]];portConstraint=eastwest;top=0;left=0;right=0;bottom=0;sketch=1;strokeColor=#457B9D;fontColor=#1D3557;" vertex="1" parent="HLTBOoEIPEG-JOOhemKR-47">
          <mxGeometry y="90" width="180" height="30" as="geometry" />
        </mxCell>
        <mxCell id="HLTBOoEIPEG-JOOhemKR-55" value="" style="shape=partialRectangle;connectable=0;fillColor=none;top=0;left=0;bottom=0;right=0;editable=1;overflow=hidden;sketch=1;strokeColor=#457B9D;fontColor=#1D3557;" vertex="1" parent="HLTBOoEIPEG-JOOhemKR-54">
          <mxGeometry width="30" height="30" as="geometry">
            <mxRectangle width="30" height="30" as="alternateBounds" />
          </mxGeometry>
        </mxCell>
        <mxCell id="HLTBOoEIPEG-JOOhemKR-56" value="Patch frequency/date" style="shape=partialRectangle;connectable=0;fillColor=none;top=0;left=0;bottom=0;right=0;align=left;spacingLeft=6;overflow=hidden;sketch=1;strokeColor=#457B9D;fontColor=#1D3557;" vertex="1" parent="HLTBOoEIPEG-JOOhemKR-54">
          <mxGeometry x="30" width="150" height="30" as="geometry">
            <mxRectangle width="150" height="30" as="alternateBounds" />
          </mxGeometry>
        </mxCell>
        <mxCell id="HLTBOoEIPEG-JOOhemKR-57" value="" style="shape=tableRow;horizontal=0;startSize=0;swimlaneHead=0;swimlaneBody=0;fillColor=none;collapsible=0;dropTarget=0;points=[[0,0.5],[1,0.5]];portConstraint=eastwest;top=0;left=0;right=0;bottom=0;sketch=1;strokeColor=#457B9D;fontColor=#1D3557;" vertex="1" parent="HLTBOoEIPEG-JOOhemKR-47">
          <mxGeometry y="120" width="180" height="30" as="geometry" />
        </mxCell>
        <mxCell id="HLTBOoEIPEG-JOOhemKR-58" value="" style="shape=partialRectangle;connectable=0;fillColor=none;top=0;left=0;bottom=0;right=0;editable=1;overflow=hidden;sketch=1;strokeColor=#457B9D;fontColor=#1D3557;" vertex="1" parent="HLTBOoEIPEG-JOOhemKR-57">
          <mxGeometry width="30" height="30" as="geometry">
            <mxRectangle width="30" height="30" as="alternateBounds" />
          </mxGeometry>
        </mxCell>
        <mxCell id="HLTBOoEIPEG-JOOhemKR-59" value="LCM plan" style="shape=partialRectangle;connectable=0;fillColor=none;top=0;left=0;bottom=0;right=0;align=left;spacingLeft=6;overflow=hidden;sketch=1;strokeColor=#457B9D;fontColor=#1D3557;" vertex="1" parent="HLTBOoEIPEG-JOOhemKR-57">
          <mxGeometry x="30" width="150" height="30" as="geometry">
            <mxRectangle width="150" height="30" as="alternateBounds" />
          </mxGeometry>
        </mxCell>
        <mxCell id="HLTBOoEIPEG-JOOhemKR-96" style="edgeStyle=orthogonalEdgeStyle;curved=1;rounded=0;orthogonalLoop=1;jettySize=auto;html=1;exitX=0.5;exitY=1;exitDx=0;exitDy=0;entryX=0.5;entryY=1;entryDx=0;entryDy=0;endArrow=ERmany;fontSize=12;startArrow=ERmany;sketch=1;strokeColor=#457B9D;fontColor=#1D3557;labelBackgroundColor=#F1FAEE;" edge="1" parent="1" source="HLTBOoEIPEG-JOOhemKR-60" target="HLTBOoEIPEG-JOOhemKR-73">
          <mxGeometry relative="1" as="geometry">
            <mxPoint x="-370" y="690" as="targetPoint" />
            <Array as="points">
              <mxPoint x="-850" y="730" />
              <mxPoint x="-120" y="730" />
            </Array>
          </mxGeometry>
        </mxCell>
        <mxCell id="HLTBOoEIPEG-JOOhemKR-60" value="Lab" style="shape=table;startSize=30;container=1;collapsible=1;childLayout=tableLayout;fixedRows=1;rowLines=0;fontStyle=1;align=center;resizeLast=1;sketch=1;fillColor=#A8DADC;strokeColor=#457B9D;fontColor=#1D3557;" vertex="1" parent="1">
          <mxGeometry x="-940" y="440" width="180" height="160" as="geometry" />
        </mxCell>
        <mxCell id="HLTBOoEIPEG-JOOhemKR-61" value="" style="shape=tableRow;horizontal=0;startSize=0;swimlaneHead=0;swimlaneBody=0;fillColor=none;collapsible=0;dropTarget=0;points=[[0,0.5],[1,0.5]];portConstraint=eastwest;top=0;left=0;right=0;bottom=1;sketch=1;strokeColor=#457B9D;fontColor=#1D3557;" vertex="1" parent="HLTBOoEIPEG-JOOhemKR-60">
          <mxGeometry y="30" width="180" height="30" as="geometry" />
        </mxCell>
        <mxCell id="HLTBOoEIPEG-JOOhemKR-62" value="PK" style="shape=partialRectangle;connectable=0;fillColor=none;top=0;left=0;bottom=0;right=0;fontStyle=1;overflow=hidden;sketch=1;strokeColor=#457B9D;fontColor=#1D3557;" vertex="1" parent="HLTBOoEIPEG-JOOhemKR-61">
          <mxGeometry width="30" height="30" as="geometry">
            <mxRectangle width="30" height="30" as="alternateBounds" />
          </mxGeometry>
        </mxCell>
        <mxCell id="HLTBOoEIPEG-JOOhemKR-63" value="002" style="shape=partialRectangle;connectable=0;fillColor=none;top=0;left=0;bottom=0;right=0;align=left;spacingLeft=6;fontStyle=5;overflow=hidden;sketch=1;strokeColor=#457B9D;fontColor=#1D3557;" vertex="1" parent="HLTBOoEIPEG-JOOhemKR-61">
          <mxGeometry x="30" width="150" height="30" as="geometry">
            <mxRectangle width="150" height="30" as="alternateBounds" />
          </mxGeometry>
        </mxCell>
        <mxCell id="HLTBOoEIPEG-JOOhemKR-64" value="" style="shape=tableRow;horizontal=0;startSize=0;swimlaneHead=0;swimlaneBody=0;fillColor=none;collapsible=0;dropTarget=0;points=[[0,0.5],[1,0.5]];portConstraint=eastwest;top=0;left=0;right=0;bottom=0;sketch=1;strokeColor=#457B9D;fontColor=#1D3557;" vertex="1" parent="HLTBOoEIPEG-JOOhemKR-60">
          <mxGeometry y="60" width="180" height="30" as="geometry" />
        </mxCell>
        <mxCell id="HLTBOoEIPEG-JOOhemKR-65" value="" style="shape=partialRectangle;connectable=0;fillColor=none;top=0;left=0;bottom=0;right=0;editable=1;overflow=hidden;sketch=1;strokeColor=#457B9D;fontColor=#1D3557;" vertex="1" parent="HLTBOoEIPEG-JOOhemKR-64">
          <mxGeometry width="30" height="30" as="geometry">
            <mxRectangle width="30" height="30" as="alternateBounds" />
          </mxGeometry>
        </mxCell>
        <mxCell id="HLTBOoEIPEG-JOOhemKR-66" value="User Shedule " style="shape=partialRectangle;connectable=0;fillColor=none;top=0;left=0;bottom=0;right=0;align=left;spacingLeft=6;overflow=hidden;sketch=1;strokeColor=#457B9D;fontColor=#1D3557;" vertex="1" parent="HLTBOoEIPEG-JOOhemKR-64">
          <mxGeometry x="30" width="150" height="30" as="geometry">
            <mxRectangle width="150" height="30" as="alternateBounds" />
          </mxGeometry>
        </mxCell>
        <mxCell id="HLTBOoEIPEG-JOOhemKR-67" value="" style="shape=tableRow;horizontal=0;startSize=0;swimlaneHead=0;swimlaneBody=0;fillColor=none;collapsible=0;dropTarget=0;points=[[0,0.5],[1,0.5]];portConstraint=eastwest;top=0;left=0;right=0;bottom=0;sketch=1;strokeColor=#457B9D;fontColor=#1D3557;" vertex="1" parent="HLTBOoEIPEG-JOOhemKR-60">
          <mxGeometry y="90" width="180" height="30" as="geometry" />
        </mxCell>
        <mxCell id="HLTBOoEIPEG-JOOhemKR-68" value="" style="shape=partialRectangle;connectable=0;fillColor=none;top=0;left=0;bottom=0;right=0;editable=1;overflow=hidden;sketch=1;strokeColor=#457B9D;fontColor=#1D3557;" vertex="1" parent="HLTBOoEIPEG-JOOhemKR-67">
          <mxGeometry width="30" height="30" as="geometry">
            <mxRectangle width="30" height="30" as="alternateBounds" />
          </mxGeometry>
        </mxCell>
        <mxCell id="HLTBOoEIPEG-JOOhemKR-69" value="Keep power &amp; network" style="shape=partialRectangle;connectable=0;fillColor=none;top=0;left=0;bottom=0;right=0;align=left;spacingLeft=6;overflow=hidden;sketch=1;strokeColor=#457B9D;fontColor=#1D3557;" vertex="1" parent="HLTBOoEIPEG-JOOhemKR-67">
          <mxGeometry x="30" width="150" height="30" as="geometry">
            <mxRectangle width="150" height="30" as="alternateBounds" />
          </mxGeometry>
        </mxCell>
        <mxCell id="HLTBOoEIPEG-JOOhemKR-70" value="" style="shape=tableRow;horizontal=0;startSize=0;swimlaneHead=0;swimlaneBody=0;fillColor=none;collapsible=0;dropTarget=0;points=[[0,0.5],[1,0.5]];portConstraint=eastwest;top=0;left=0;right=0;bottom=0;sketch=1;strokeColor=#457B9D;fontColor=#1D3557;" vertex="1" parent="HLTBOoEIPEG-JOOhemKR-60">
          <mxGeometry y="120" width="180" height="30" as="geometry" />
        </mxCell>
        <mxCell id="HLTBOoEIPEG-JOOhemKR-71" value="" style="shape=partialRectangle;connectable=0;fillColor=none;top=0;left=0;bottom=0;right=0;editable=1;overflow=hidden;sketch=1;strokeColor=#457B9D;fontColor=#1D3557;" vertex="1" parent="HLTBOoEIPEG-JOOhemKR-70">
          <mxGeometry width="30" height="30" as="geometry">
            <mxRectangle width="30" height="30" as="alternateBounds" />
          </mxGeometry>
        </mxCell>
        <mxCell id="HLTBOoEIPEG-JOOhemKR-72" value="secure desktop" style="shape=partialRectangle;connectable=0;fillColor=none;top=0;left=0;bottom=0;right=0;align=left;spacingLeft=6;overflow=hidden;sketch=1;strokeColor=#457B9D;fontColor=#1D3557;" vertex="1" parent="HLTBOoEIPEG-JOOhemKR-70">
          <mxGeometry x="30" width="150" height="30" as="geometry">
            <mxRectangle width="150" height="30" as="alternateBounds" />
          </mxGeometry>
        </mxCell>
        <mxCell id="HLTBOoEIPEG-JOOhemKR-73" value="Cybersec" style="shape=table;startSize=30;container=1;collapsible=1;childLayout=tableLayout;fixedRows=1;rowLines=0;fontStyle=1;align=center;resizeLast=1;sketch=1;fillColor=#A8DADC;strokeColor=#457B9D;fontColor=#1D3557;" vertex="1" parent="1">
          <mxGeometry x="-210" y="440" width="180" height="160" as="geometry" />
        </mxCell>
        <mxCell id="HLTBOoEIPEG-JOOhemKR-74" value="" style="shape=tableRow;horizontal=0;startSize=0;swimlaneHead=0;swimlaneBody=0;fillColor=none;collapsible=0;dropTarget=0;points=[[0,0.5],[1,0.5]];portConstraint=eastwest;top=0;left=0;right=0;bottom=1;sketch=1;strokeColor=#457B9D;fontColor=#1D3557;" vertex="1" parent="HLTBOoEIPEG-JOOhemKR-73">
          <mxGeometry y="30" width="180" height="30" as="geometry" />
        </mxCell>
        <mxCell id="HLTBOoEIPEG-JOOhemKR-75" value="PK" style="shape=partialRectangle;connectable=0;fillColor=none;top=0;left=0;bottom=0;right=0;fontStyle=1;overflow=hidden;sketch=1;strokeColor=#457B9D;fontColor=#1D3557;" vertex="1" parent="HLTBOoEIPEG-JOOhemKR-74">
          <mxGeometry width="30" height="30" as="geometry">
            <mxRectangle width="30" height="30" as="alternateBounds" />
          </mxGeometry>
        </mxCell>
        <mxCell id="HLTBOoEIPEG-JOOhemKR-76" value="003" style="shape=partialRectangle;connectable=0;fillColor=none;top=0;left=0;bottom=0;right=0;align=left;spacingLeft=6;fontStyle=5;overflow=hidden;sketch=1;strokeColor=#457B9D;fontColor=#1D3557;" vertex="1" parent="HLTBOoEIPEG-JOOhemKR-74">
          <mxGeometry x="30" width="150" height="30" as="geometry">
            <mxRectangle width="150" height="30" as="alternateBounds" />
          </mxGeometry>
        </mxCell>
        <mxCell id="HLTBOoEIPEG-JOOhemKR-77" value="" style="shape=tableRow;horizontal=0;startSize=0;swimlaneHead=0;swimlaneBody=0;fillColor=none;collapsible=0;dropTarget=0;points=[[0,0.5],[1,0.5]];portConstraint=eastwest;top=0;left=0;right=0;bottom=0;sketch=1;strokeColor=#457B9D;fontColor=#1D3557;" vertex="1" parent="HLTBOoEIPEG-JOOhemKR-73">
          <mxGeometry y="60" width="180" height="30" as="geometry" />
        </mxCell>
        <mxCell id="HLTBOoEIPEG-JOOhemKR-78" value="" style="shape=partialRectangle;connectable=0;fillColor=none;top=0;left=0;bottom=0;right=0;editable=1;overflow=hidden;sketch=1;strokeColor=#457B9D;fontColor=#1D3557;" vertex="1" parent="HLTBOoEIPEG-JOOhemKR-77">
          <mxGeometry width="30" height="30" as="geometry">
            <mxRectangle width="30" height="30" as="alternateBounds" />
          </mxGeometry>
        </mxCell>
        <mxCell id="HLTBOoEIPEG-JOOhemKR-79" value="Approve updates" style="shape=partialRectangle;connectable=0;fillColor=none;top=0;left=0;bottom=0;right=0;align=left;spacingLeft=6;overflow=hidden;sketch=1;strokeColor=#457B9D;fontColor=#1D3557;" vertex="1" parent="HLTBOoEIPEG-JOOhemKR-77">
          <mxGeometry x="30" width="150" height="30" as="geometry">
            <mxRectangle width="150" height="30" as="alternateBounds" />
          </mxGeometry>
        </mxCell>
        <mxCell id="HLTBOoEIPEG-JOOhemKR-80" value="" style="shape=tableRow;horizontal=0;startSize=0;swimlaneHead=0;swimlaneBody=0;fillColor=none;collapsible=0;dropTarget=0;points=[[0,0.5],[1,0.5]];portConstraint=eastwest;top=0;left=0;right=0;bottom=0;sketch=1;strokeColor=#457B9D;fontColor=#1D3557;" vertex="1" parent="HLTBOoEIPEG-JOOhemKR-73">
          <mxGeometry y="90" width="180" height="30" as="geometry" />
        </mxCell>
        <mxCell id="HLTBOoEIPEG-JOOhemKR-81" value="" style="shape=partialRectangle;connectable=0;fillColor=none;top=0;left=0;bottom=0;right=0;editable=1;overflow=hidden;sketch=1;strokeColor=#457B9D;fontColor=#1D3557;" vertex="1" parent="HLTBOoEIPEG-JOOhemKR-80">
          <mxGeometry width="30" height="30" as="geometry">
            <mxRectangle width="30" height="30" as="alternateBounds" />
          </mxGeometry>
        </mxCell>
        <mxCell id="HLTBOoEIPEG-JOOhemKR-82" value="Patch report" style="shape=partialRectangle;connectable=0;fillColor=none;top=0;left=0;bottom=0;right=0;align=left;spacingLeft=6;overflow=hidden;sketch=1;strokeColor=#457B9D;fontColor=#1D3557;" vertex="1" parent="HLTBOoEIPEG-JOOhemKR-80">
          <mxGeometry x="30" width="150" height="30" as="geometry">
            <mxRectangle width="150" height="30" as="alternateBounds" />
          </mxGeometry>
        </mxCell>
        <mxCell id="HLTBOoEIPEG-JOOhemKR-83" value="" style="shape=tableRow;horizontal=0;startSize=0;swimlaneHead=0;swimlaneBody=0;fillColor=none;collapsible=0;dropTarget=0;points=[[0,0.5],[1,0.5]];portConstraint=eastwest;top=0;left=0;right=0;bottom=0;sketch=1;strokeColor=#457B9D;fontColor=#1D3557;" vertex="1" parent="HLTBOoEIPEG-JOOhemKR-73">
          <mxGeometry y="120" width="180" height="30" as="geometry" />
        </mxCell>
        <mxCell id="HLTBOoEIPEG-JOOhemKR-84" value="" style="shape=partialRectangle;connectable=0;fillColor=none;top=0;left=0;bottom=0;right=0;editable=1;overflow=hidden;sketch=1;strokeColor=#457B9D;fontColor=#1D3557;" vertex="1" parent="HLTBOoEIPEG-JOOhemKR-83">
          <mxGeometry width="30" height="30" as="geometry">
            <mxRectangle width="30" height="30" as="alternateBounds" />
          </mxGeometry>
        </mxCell>
        <mxCell id="HLTBOoEIPEG-JOOhemKR-85" value="Infromation" style="shape=partialRectangle;connectable=0;fillColor=none;top=0;left=0;bottom=0;right=0;align=left;spacingLeft=6;overflow=hidden;sketch=1;strokeColor=#457B9D;fontColor=#1D3557;" vertex="1" parent="HLTBOoEIPEG-JOOhemKR-83">
          <mxGeometry x="30" width="150" height="30" as="geometry">
            <mxRectangle width="150" height="30" as="alternateBounds" />
          </mxGeometry>
        </mxCell>
        <mxCell id="HLTBOoEIPEG-JOOhemKR-94" style="edgeStyle=orthogonalEdgeStyle;curved=1;rounded=0;orthogonalLoop=1;jettySize=auto;html=1;exitX=1;exitY=0.5;exitDx=0;exitDy=0;entryX=0.5;entryY=0;entryDx=0;entryDy=0;endArrow=ERmany;fontSize=12;startArrow=ERmany;sketch=1;strokeColor=#457B9D;fontColor=#1D3557;labelBackgroundColor=#F1FAEE;" edge="1" parent="1" source="HLTBOoEIPEG-JOOhemKR-54" target="HLTBOoEIPEG-JOOhemKR-73">
          <mxGeometry relative="1" as="geometry" />
        </mxCell>
        <mxCell id="HLTBOoEIPEG-JOOhemKR-95" style="edgeStyle=orthogonalEdgeStyle;curved=1;rounded=0;orthogonalLoop=1;jettySize=auto;html=1;exitX=0;exitY=0.5;exitDx=0;exitDy=0;entryX=0.5;entryY=0;entryDx=0;entryDy=0;endArrow=ERmany;fontSize=12;startArrow=ERmany;sketch=1;strokeColor=#457B9D;fontColor=#1D3557;labelBackgroundColor=#F1FAEE;" edge="1" parent="1" source="HLTBOoEIPEG-JOOhemKR-54" target="HLTBOoEIPEG-JOOhemKR-60">
          <mxGeometry relative="1" as="geometry" />
        </mxCell>
      </root>
    </mxGraphModel>
  </diagram>
</mxfile>
